# xmcd
# 
# Track frame offsets:
#     150
#     16596
#     37283
#     55295
#     73020
#     87116
#     104529
#     122563
#     145981
#     164143
#     178277
#     197433
# 
# Disc length: 2923
# 
# Revision: 1132671741
# Processed by: cddbd v1.5.2PL0 Copyright (c) Steve Scherf et al.
# Submitted via: fre:ac v1.0.31
# 
DISCID=ad0b690c
DTITLE=R.E.M. - Monster Remix
DYEAR=2019
DGENRE=
TTITLE0=What's The Frequency, Kenneth?
TTITLE1=Crush with Eyeliner
TTITLE2=King Of Comedy
TTITLE3=I Don't Sleep, I Dream
TTITLE4=Star 69
TTITLE5=Strange Currencies
TTITLE6=Tongue
TTITLE7=Bang and Blame
TTITLE8=I Took Your Name
TTITLE9=Let Me In
TTITLE10=Circus Envy
TTITLE11=You
EXTD=
EXTT0=
EXTT1=
EXTT2=
EXTT3=
EXTT4=
EXTT5=
EXTT6=
EXTT7=
EXTT8=
EXTT9=
EXTT10=
EXTT11=
PLAYORDER=
